<svg id="Layer_1" data-name="Layer 1" xmlns="http://www.w3.org/2000/svg" viewBox="0 0 53 53"><defs><style>.cls-1{fill:#fff;}</style></defs><title>botTee_logo</title><path id="Icon_simple-probot" data-name="Icon simple-probot" class="cls-1" d="M26.82,4.38a3.2,3.2,0,0,0-1,6.24l-1.16,4.72H9.32a4.51,4.51,0,0,0-4.5,4.5h0V43.73a4.51,4.51,0,0,0,4.5,4.5h35a4.5,4.5,0,0,0,4.5-4.5V19.84a4.5,4.5,0,0,0-4.5-4.5H28.92l-1.13-4.72a3.2,3.2,0,0,0-1-6.24ZM12,18.75H41.62a3.65,3.65,0,0,1,3.65,3.66V41a3.65,3.65,0,0,1-3.65,3.66H12A3.65,3.65,0,0,1,8.38,41V22.41A3.65,3.65,0,0,1,12,18.75ZM18,23a8.39,8.39,0,1,0,8.39,8.39h0A8.39,8.39,0,0,0,18,23Zm17.86,0a8.39,8.39,0,1,0,8.39,8.39h0A8.39,8.39,0,0,0,35.86,23ZM18,25a6.43,6.43,0,1,1-6.43,6.43A6.43,6.43,0,0,1,18,25Zm17.86,0a6.43,6.43,0,1,1-6.43,6.43A6.43,6.43,0,0,1,35.86,25ZM18,28a3.38,3.38,0,1,0,3.38,3.38A3.38,3.38,0,0,0,18,28Zm17.86,0a3.38,3.38,0,1,0,3.38,3.38A3.38,3.38,0,0,0,35.86,28ZM23.16,39.92v3.95h1.3V39.92Zm2,0v3.95h1.29V39.92Zm2,0v3.95H28.4V39.92Zm2,0v3.95h1.29V39.92Zm2,0v3.85a2,2,0,0,0,1.52-1.92h0A2,2,0,0,0,31.06,40ZM22.48,40a2,2,0,0,0-1.34,1.87h0a2,2,0,0,0,1.34,1.88V40Z"/></svg>